<svg id="Ebene_1" data-name="Ebene 1" xmlns="http://www.w3.org/2000/svg" viewBox="0 0 99.58 29.95"><defs><style>.cls-1{fill:#fff;}</style></defs><title>logo-horizontal-white-en</title><path class="cls-1" d="M24,3c0,12-5.79,12.8-8.67,10.8a26.39,26.39,0,0,0,6.92-7.66,24,24,0,0,1-6.13,6.26,21.28,21.28,0,0,0-6.36,7.5h0a4.66,4.66,0,0,0-.22.56,7.2,7.2,0,0,0,4.53,9.14,7.12,7.12,0,0,0,3.73.24h0A15,15,0,0,0,24,3ZM11.3,20.06c1-1.32,12.34,1.5,12.34,1.5s-7.89-2.73-12-2.42c1.07-1.53,5.59-5,14.05,2.74C14.64,26.58,10.31,22.29,11.3,20.06Z" transform="translate(-0.02 -0.03)"/><path class="cls-1" d="M.82,10.26a15,15,0,0,0,9.43,19l.51.15c-2-2-3-4.23-2.8-6.61.41-4.41,3.45-7.61,6.34-10C12.44,9.39,15.33,7.08,24,3A15.26,15.26,0,0,0,19.87.82,15,15,0,0,0,.82,10.26Zm8.6,5.91c.41-5.48-3.79-9.69-3.79-9.69s4,5.06,3.1,10.11C5.84,17.58,4,15.42,5,5.48,14.69,11.2,11.51,15.25,9.42,16.17Z" transform="translate(-0.02 -0.03)"/><path class="cls-1" d="M47.83,10.31a4.57,4.57,0,0,1,1.67,1.86,5.83,5.83,0,0,1,.61,2.7,5.8,5.8,0,0,1-.61,2.7,4.63,4.63,0,0,1-1.67,1.86,4.25,4.25,0,0,1-2.33.67,4.09,4.09,0,0,1-1.87-.44,4.63,4.63,0,0,1-1.41-1.08v4.28a.93.93,0,0,1-.26.66,1,1,0,0,1-1.32,0,.94.94,0,0,1-.26-.67V10.73a1,1,0,0,1,.26-.68.83.83,0,0,1,.65-.27.9.9,0,0,1,.67.27,1,1,0,0,1,.26.68v.55a3.78,3.78,0,0,1,1.35-1.15,3.91,3.91,0,0,1,1.89-.49A4.42,4.42,0,0,1,47.83,10.31Zm-1,7.63A3.24,3.24,0,0,0,48,16.68a4.11,4.11,0,0,0,.39-1.81,4.06,4.06,0,0,0-.39-1.8,3.17,3.17,0,0,0-1.11-1.26,3,3,0,0,0-3.22,0,3,3,0,0,0-1.11,1.26,4.32,4.32,0,0,0,0,3.63,2.95,2.95,0,0,0,2.73,1.71A2.88,2.88,0,0,0,46.85,17.94Z" transform="translate(-0.02 -0.03)"/><path class="cls-1" d="M54,19.66a.9.9,0,0,1-.66.27.85.85,0,0,1-.64-.27.89.89,0,0,1-.26-.66V6.58a.9.9,0,0,1,.27-.66.88.88,0,0,1,.65-.27.86.86,0,0,1,.65.27.93.93,0,0,1,.26.66V19A.9.9,0,0,1,54,19.66Z" transform="translate(-0.02 -0.03)"/><path class="cls-1" d="M66,9.94a1,1,0,0,1,.26.69V19a.93.93,0,0,1-.26.66.89.89,0,0,1-.67.27.86.86,0,0,1-.65-.26.91.91,0,0,1-.25-.67v-.5A4.24,4.24,0,0,1,63,19.65a3.93,3.93,0,0,1-1.87.47,4.4,4.4,0,0,1-2.39-.67,4.72,4.72,0,0,1-1.68-1.88,6,6,0,0,1-.6-2.72,6,6,0,0,1,.6-2.71,4.77,4.77,0,0,1,1.67-1.88,4.28,4.28,0,0,1,2.34-.67A4.36,4.36,0,0,1,63,10a4,4,0,0,1,1.4,1.08v-.46a1,1,0,0,1,.25-.68.83.83,0,0,1,.65-.27A.92.92,0,0,1,66,9.94Zm-3,8a3.1,3.1,0,0,0,1.1-1.27,4.46,4.46,0,0,0,0-3.65A3.13,3.13,0,0,0,63,11.76a2.8,2.8,0,0,0-1.61-.48,2.85,2.85,0,0,0-1.61.47A3.1,3.1,0,0,0,58.67,13a4,4,0,0,0-.4,1.83,4,4,0,0,0,.4,1.84A3.1,3.1,0,0,0,59.77,18,3,3,0,0,0,63,18Z" transform="translate(-0.02 -0.03)"/><path class="cls-1" d="M77.59,13.75V19a.93.93,0,0,1-.26.66.9.9,0,0,1-.67.27.88.88,0,0,1-.65-.27.93.93,0,0,1-.26-.66V13.77A2.88,2.88,0,0,0,75.23,12a2,2,0,0,0-1.7-.68,2.92,2.92,0,0,0-1.39.34,2.64,2.64,0,0,0-1,.91,2.27,2.27,0,0,0-.36,1.24V19a.89.89,0,0,1-.26.66.87.87,0,0,1-.66.27.9.9,0,0,1-.66-.26A.91.91,0,0,1,69,19V10.74a.92.92,0,0,1,.26-.65.93.93,0,0,1,1.31,0,.88.88,0,0,1,.26.65v.68a4.19,4.19,0,0,1,1.4-1.3,3.66,3.66,0,0,1,1.92-.53Q77.59,9.59,77.59,13.75Z" transform="translate(-0.02 -0.03)"/><path class="cls-1" d="M83.07,11.61v5.75c0,.65.29,1,.86,1a1.23,1.23,0,0,0,.37-.07,1.66,1.66,0,0,1,.37-.07.53.53,0,0,1,.42.21.85.85,0,0,1,.18.55.82.82,0,0,1-.47.69,1.94,1.94,0,0,1-1,.29,4.81,4.81,0,0,1-1.17-.14,1.68,1.68,0,0,1-.94-.68,2.74,2.74,0,0,1-.42-1.67V11.61H80.11a.81.81,0,0,1-.6-.24.79.79,0,0,1-.25-.61.75.75,0,0,1,.25-.59.81.81,0,0,1,.6-.24h1.12V8.31a.92.92,0,0,1,.26-.65.9.9,0,0,1,.67-.27.88.88,0,0,1,.65.27.92.92,0,0,1,.26.65V9.93h1.6a.82.82,0,0,1,.61.25.81.81,0,0,1,.24.6.78.78,0,0,1-.24.6.84.84,0,0,1-.61.23Z" transform="translate(-0.02 -0.03)"/><path class="cls-1" d="M87.67,8.25a.81.81,0,0,1-.24-.65V7.29a.75.75,0,0,1,.26-.66,1.41,1.41,0,0,1,.8-.19,1.24,1.24,0,0,1,.78.2.81.81,0,0,1,.24.65V7.6a.78.78,0,0,1-.25.66,1.37,1.37,0,0,1-.79.19A1.26,1.26,0,0,1,87.67,8.25Zm1.46,11.41a.93.93,0,0,1-1.31,0,.93.93,0,0,1-.26-.66V10.65a.93.93,0,0,1,.26-.66.93.93,0,0,1,1.31,0,.89.89,0,0,1,.26.66V19A.89.89,0,0,1,89.13,19.66Z" transform="translate(-0.02 -0.03)"/><path class="cls-1" d="M99.6,19a.88.88,0,0,1-.29.67.91.91,0,0,1-.63.28.94.94,0,0,1-.76-.41l-2.58-3.26-2.55,3.26a.83.83,0,0,1-.33.29.82.82,0,0,1-.4.1.92.92,0,0,1-.61-.24.72.72,0,0,1-.28-.57.83.83,0,0,1,.21-.58L94.28,15l-3-3.74a.93.93,0,0,1-.19-.54.87.87,0,0,1,.28-.66A.91.91,0,0,1,92,9.76a.89.89,0,0,1,.75.39l2.64,3.33,2.49-3.31a.89.89,0,0,1,.74-.41.84.84,0,0,1,.61.24.75.75,0,0,1,.25.57.86.86,0,0,1-.21.6l-2.85,3.61,2.93,3.72A.8.8,0,0,1,99.6,19Z" transform="translate(-0.02 -0.03)"/></svg>